<?xml version="1.0" encoding="iso-8859-1"?>
<!-- Generator: Adobe Illustrator 19.0.0, SVG Export Plug-In . SVG Version: 6.00 Build 0)  -->
<svg version="1.1" id="Capa_1" xmlns="http://www.w3.org/2000/svg" xmlns:xlink="http://www.w3.org/1999/xlink" x="0px" y="0px"
	 viewBox="0 0 512.001 512.001" style="enable-background:new 0 0 512.001 512.001;" xml:space="preserve">
<path style="fill:#E1EFFB;" d="M295.011,256.08l48.61,48.61l-51.876,51.876c-2.083,2.083-5.098,2.937-7.964,2.255l0,0
	c-2.866-0.682-5.881,0.171-7.964,2.255l-24.979,24.979c-0.462,0.462-0.991,0.851-1.569,1.154l-27.075,14.214
	c-1.175,0.617-2.132,1.58-2.742,2.759l-13.195,25.526c-0.644,1.246-1.676,2.249-2.939,2.859l-20.792,10.028
	c-1.099,0.53-2.026,1.36-2.674,2.395l-18.982,30.302c-0.775,1.237-2.064,2.062-3.512,2.247l-34.107,4.364
	c-3.164,0.405-5.858-2.289-5.453-5.453l4.364-34.107c0.185-1.448,1.01-2.737,2.247-3.512l30.302-18.982
	c1.034-0.648,1.865-1.575,2.395-2.674l10.028-20.792c0.609-1.263,1.613-2.295,2.859-2.939l25.526-13.195
	c1.179-0.61,2.142-1.567,2.759-2.742l14.214-27.075c0.303-0.578,0.693-1.107,1.154-1.569l24.979-24.979
	c2.083-2.083,2.937-5.098,2.255-7.964l0,0c-0.682-2.866,0.171-5.881,2.255-7.964L295.011,256.08z"/>
<path style="fill:#CCDFED;" d="M317.852,278.921l-198.886,201.35c0.125,0.143,0.259,0.279,0.4,0.407
	c0.005,0.005,0.011,0.01,0.016,0.015c0.134,0.121,0.275,0.233,0.422,0.339c0.015,0.01,0.029,0.021,0.044,0.031
	c0.137,0.096,0.281,0.185,0.428,0.267c0.026,0.015,0.052,0.03,0.078,0.044c0.137,0.073,0.279,0.138,0.424,0.198
	c0.038,0.016,0.075,0.033,0.114,0.048c0.135,0.052,0.275,0.096,0.415,0.136c0.05,0.014,0.098,0.031,0.148,0.043
	c0.134,0.034,0.272,0.057,0.41,0.079c0.058,0.009,0.115,0.022,0.173,0.029c0.141,0.017,0.284,0.023,0.429,0.027
	c0.057,0.002,0.113,0.009,0.171,0.009c0.201-0.001,0.406-0.013,0.612-0.039l34.108-4.365c1.448-0.185,2.737-1.01,3.512-2.247
	l18.982-30.302c0.648-1.034,1.575-1.865,2.674-2.395l20.792-10.028c1.263-0.609,2.295-1.612,2.939-2.859l13.195-25.526
	c0.609-1.179,1.567-2.142,2.742-2.759l27.075-14.214c0.578-0.304,1.107-0.693,1.569-1.154l24.979-24.979
	c2.083-2.083,5.098-2.937,7.964-2.255s5.881-0.172,7.964-2.255l51.876-51.876L317.852,278.921z"/>
<path style="fill:#2C5871;" d="M360.286,105.186l-80.819,104.466c-13.912,17.982-12.29,43.502,3.786,59.578l47.219,47.219
	c16.076,16.076,41.596,17.698,59.578,3.786l104.466-80.819c21.469-16.609,23.482-48.292,4.289-67.485l-71.034-71.034
	C408.577,81.703,376.895,83.717,360.286,105.186z M405.488,133.215l60.998,60.998c5.762,5.763,5.762,15.105,0,20.868
	c-5.763,5.762-15.105,5.762-20.868,0l-60.998-60.998c-5.762-5.762-5.762-15.105,0-20.868l0,0
	C390.383,127.452,399.726,127.452,405.488,133.215z"/>
<path style="fill:#1D4859;" d="M498.805,171.931l-32.25-32.249c16.587,16.588,17.322,42.497,3.36,59.949
	c1.882,5.214,0.75,11.271-3.429,15.45c-4.773,4.773-11.997,5.58-17.613,2.446L357.8,287.985
	c-17.982,13.912-43.502,12.29-59.578-3.786l-14.97-14.97c0.001,0.001,0.001,0.001,0.002,0.002l47.219,47.219
	c16.076,16.076,41.596,17.698,59.578,3.786l104.466-80.819C515.985,222.807,517.998,191.124,498.805,171.931z"/>
<path style="fill:#FF4C4C;" d="M128.106,45.141L7.002,166.244c-9.337,9.337-9.336,24.474,0,33.81l93.691,93.691
	c9.336,9.336,24.474,9.337,33.81,0l121.104-121.104c10.858-10.858,16.304-25.994,14.853-41.28l-6.504-68.522
	c-1.311-13.807-12.241-24.738-26.048-26.048l-68.522-6.504C154.1,28.837,138.963,34.283,128.106,45.141z M212.853,64.601
	c6.433-6.433,16.862-6.432,23.294,0c6.433,6.433,6.433,16.862,0,23.294c-6.433,6.433-16.862,6.433-23.295,0
	C206.42,81.463,206.42,71.034,212.853,64.601z"/>
<path style="fill:#F33A3A;" d="M270.46,131.363l-6.504-68.522c-1.31-13.807-12.241-24.738-26.048-26.048l-5.539-0.526l2.587,27.258
	c0.409,0.337,0.808,0.694,1.191,1.077c6.072,6.072,6.406,15.7,1.015,22.171l1.184,12.477c1.451,15.286-3.995,30.422-14.853,41.28
	L102.39,261.633c-9.336,9.336-24.473,9.336-33.81,0.001l32.113,32.113c9.336,9.336,24.474,9.337,33.81,0l121.104-121.104
	C266.465,161.785,271.911,146.649,270.46,131.363z"/>
<g>
	<path style="fill:#FFB125;" d="M114.542,129.762l56.445,56.445c7.533,7.533,19.747,7.533,27.28,0l22.336-22.336
		c7.533-7.533,7.533-19.747,0-27.28l-56.445-56.445c-7.533-7.533-19.747-7.533-27.28,0l-22.336,22.336
		C107.009,110.015,107.009,122.229,114.542,129.762z"/>
	<path style="fill:#FFB125;" d="M46.142,198.162l56.445,56.445c7.533,7.533,19.747,7.533,27.28,0l22.336-22.336
		c7.533-7.533,7.533-19.747,0-27.28l-56.445-56.445c-7.533-7.533-19.747-7.533-27.28,0l-22.336,22.336
		C38.609,178.415,38.609,190.629,46.142,198.162z"/>
</g>
<path style="fill:#82635A;" d="M370.293,161.044c-20.283,0-44.644-5.657-68.598-15.928c-23.957-10.272-44.852-24.023-58.834-38.719
	c-15.496-16.286-21.003-32.311-15.509-45.125l0,0c5.495-12.814,20.9-19.872,43.38-19.874c0.002,0,0.005,0,0.008,0
	c20.283,0,44.644,5.657,68.598,15.928c23.957,10.272,44.851,24.023,58.834,38.719c15.496,16.286,21.003,32.311,15.509,45.125
	c-5.495,12.814-20.9,19.872-43.38,19.874C370.299,161.044,370.295,161.044,370.293,161.044z M270.74,56.399
	c-0.003,0-0.004,0-0.007,0c-15.637,0.001-26.7,4.033-29.595,10.785l0,0c-2.895,6.752,1.811,17.545,12.59,28.874
	c12.613,13.256,31.748,25.783,53.878,35.272c22.127,9.488,44.391,14.714,62.687,14.714c0.003,0,0.004,0,0.007,0
	c15.636-0.001,26.7-4.033,29.595-10.785s-1.811-17.545-12.589-28.874c-12.613-13.256-31.748-25.783-53.878-35.272
	C311.3,61.626,289.036,56.399,270.74,56.399z M234.245,64.229h0.01H234.245z"/>
<path style="fill:#2C5871;" d="M427.77,100.897l13.114,13.114l-27.3,27.3l-8.096-8.096c-2.764-2.764-6.351-4.187-9.972-4.3
	l-29.689-29.689C383.247,83.538,410.539,83.665,427.77,100.897z"/>
<path style="fill:#FF4C4C;" d="M236.147,64.601c3.156,3.156,4.748,7.275,4.807,11.412c1.544,5.866,5.92,12.842,12.773,20.045
	c4.184,4.398,9.107,8.709,14.602,12.861l-4.374-46.078c-1.31-13.807-12.241-24.738-26.048-26.048l-68.522-6.504
	c-1.546-0.147-3.089-0.204-4.627-0.211l-3.959,3.959l48.455,48.455c-2.437-5.958-1.239-13.053,3.598-17.89
	C219.285,58.168,229.715,58.168,236.147,64.601z"/>
<g>
</g>
<g>
</g>
<g>
</g>
<g>
</g>
<g>
</g>
<g>
</g>
<g>
</g>
<g>
</g>
<g>
</g>
<g>
</g>
<g>
</g>
<g>
</g>
<g>
</g>
<g>
</g>
<g>
</g>
</svg>
